# xmcd
#
# Track frame offsets:
# 150
# 23152
# 43004
# 62031
# 81683
# 100960
# 119837
# 144731
# 165636
# 186545
# 212975
# 234402
# 252774
# 276481
#
# Disc length: 3965 seconds
#
#
# Revision: 2
# Processed by: cddbd v1.5.2PL0 Copyright (c) Steve Scherf et al.
# Submitted via: FreeRIP 2.951 
#
DISCID=de0f7b0e
DTITLE=Kenny G - Montage - disk 1
DYEAR=1900
DGENRE=
TTITLE0=Songbird
TTITLE1=Sade
TTITLE2=Tradewinds
TTITLE3=We've Saved The Best For Last
TTITLE4=Going Home
TTITLE5=Midnight Motion
TTITLE6=Silhouette
TTITLE7=Tribeca
TTITLE8=Uncle Al
TTITLE9=Let Go
TTITLE10=Against The Doctor's Orders
TTITLE11=Theme From Dying Young
TTITLE12=Natural Rides
TTITLE13=Jasmine Flower
EXTD=by Carlos Ito
EXTT0=
EXTT1=
EXTT2=
EXTT3=
EXTT4=
EXTT5=
EXTT6=
EXTT7=
EXTT8=
EXTT9=
EXTT10=
EXTT11=
EXTT12=
EXTT13=
PLAYORDER=
